<svg width="365" height="140" viewBox="0 0 365 140" fill="none" xmlns="http://www.w3.org/2000/svg">
<rect x="26" width="339" height="140" rx="10" fill="url(#paint0_linear_574_4305)"/>
<path d="M290 0H355C360.523 0 365 4.47715 365 10V130C365 135.523 360.523 140 355 140H290V0Z" fill="#FF9500"/>
<path d="M25.5 37C28.8487 37 32.1646 37.776 35.2584 39.2836C38.3522 40.7913 41.1633 43.001 43.5312 45.7868C45.8991 48.5726 47.7774 51.8797 49.0589 55.5195C50.3404 59.1593 51 63.0604 51 67C51 70.9397 50.3404 74.8407 49.0589 78.4805C47.7774 82.1203 45.8991 85.4275 43.5312 88.2132C41.1633 90.999 38.3522 93.2088 35.2584 94.7164C32.1646 96.224 28.8487 97 25.5 97L25.5 67L25.5 37Z" fill="#0B296F"/>
<line x1="292" y1="70.75" x2="363.005" y2="70.75" stroke="#0B296F"/>
<defs>
<linearGradient id="paint0_linear_574_4305" x1="195.5" y1="0" x2="195.5" y2="140" gradientUnits="userSpaceOnUse">
<stop stop-color="white"/>
<stop offset="0.989583" stop-color="#FDFEFF"/>
</linearGradient>
</defs>
</svg>
