<svg width="256" height="140" viewBox="0 0 256 140" fill="none" xmlns="http://www.w3.org/2000/svg">
<path d="M0 10C0 4.47716 4.47715 0 10 0H246C251.523 0 256 4.47715 256 10V44.5L255.806 44.4254L255.554 44.3487L255.5 44.3348C254.198 44.1169 252.861 44.3054 251.67 44.8745L250.631 45.3712L249.421 46.0786L248.296 46.8539L247.475 47.4868L246.693 48.143L245.958 48.8065L245.238 49.5L244.42 50.3448L243.615 51.2361L242.845 52.1486L242.099 53.0932L241.428 54L240.791 54.9168L240.18 55.853L239.582 56.8334L239.085 57.7013L238.61 58.5865L238.14 59.5247L237.686 60.5L237.318 61.3556L236.974 62.2211L236.653 63.0991L236.353 64L235.983 65.2772C235.952 65.3839 235.923 65.4907 235.896 65.5985C235.826 65.8783 235.682 66.4639 235.595 66.8817C235.495 67.3638 235.377 68.067 235.334 68.331C235.322 68.4016 235.312 68.4713 235.302 68.5421C235.267 68.8067 235.174 69.5111 235.131 70C235.111 70.2286 235.089 70.5587 235.081 70.6881C235.078 70.7249 235.076 70.7613 235.075 70.7981C235.068 70.9292 235.052 71.2662 235.046 71.5C235.038 71.7943 235.036 71.9594 235.038 72.2538C235.039 72.4224 235.044 72.6457 235.049 72.8039C235.052 72.9347 235.059 73.0653 235.068 73.1958L235.161 74.5L235.252 75.2408L235.372 76L235.656 77.3497L236.032 78.691L236.512 80.0422L236.783 80.6984L237.077 81.3446L237.561 82.3017L238.092 83.2335L239.216 84.9207L239.831 85.7236L240.155 86.1118L240.479 86.5L240.944 87.0209L241.456 87.5626L242.5 88.5804L244.152 90L246.5 91.7139L248.138 92.7485L249 93.2499L249.799 93.6909L251.297 94.4619L252.833 95.1862L254.409 95.868L256 96.5V130C256 135.523 251.523 140 246 140H10C4.47715 140 0 135.523 0 130V10Z" fill="white"/>
</svg>
